# This file uses centimeters as units for non-parametric coordinates.

mtllib Room2.mtl
g default
v 1439.533813 -24.779440 -4087.615234
v 597.205688 -24.779440 -4087.615234
v 1439.533813 24.779440 -4087.615234
v 597.205688 24.779440 -4087.615234
v 1439.533813 24.779440 -637.897949
v 597.205688 24.779440 -637.897949
v 1439.533813 -24.779440 -637.897949
v 597.205688 -24.779440 -637.897949
v 1308.093871 -24.779440 -637.898438
v 1308.093871 -24.779440 -4087.615234
v 1308.093871 24.779440 -4087.615234
v 1308.093871 24.779440 -637.898438
v 743.149535 -24.779440 -637.897949
v 743.149535 -24.779440 -4087.615234
v 743.149535 24.779440 -4087.615234
v 743.149535 24.779440 -637.897949
v 1439.533813 493.521606 -4087.615234
v 1308.093871 493.521606 -4087.615234
v 1308.093871 493.521606 -637.898438
v 1439.533813 493.521606 -637.897949
v 743.149535 493.521606 -4087.615234
v 743.149535 493.521606 -637.897949
v 597.205688 493.521606 -4087.615234
v 597.205688 493.521606 -637.897949
v 1439.533813 24.779442 -3359.412598
v 597.205688 24.779440 -3362.715576
v 1439.533813 -24.779440 -3359.412354
v 597.205688 -24.779440 -3362.715576
v 1308.093871 -24.779438 -3359.927734
v 1308.093871 24.779440 -3359.927979
v 743.149535 -24.779440 -3362.143311
v 743.149535 24.779440 -3362.143311
v 1308.093871 493.521606 -3359.927979
v 1439.533813 493.521667 -3359.412598
v 743.149535 493.521606 -3362.143311
v 597.205688 493.521606 -3362.715576
v 1439.533813 -24.779438 -1905.431763
v 597.205688 -24.779440 -1902.128418
v 1308.093871 -24.779438 -1904.916260
v 743.149535 -24.779442 -1902.700928
v 1439.533813 24.779442 -1905.431763
v 597.205688 24.779440 -1902.128418
v 1308.093871 24.779440 -1904.916382
v 743.149535 24.779440 -1902.700806
v 1308.093871 493.521606 -1904.916382
v 1439.533813 493.521606 -1905.431763
v 743.149535 493.521606 -1902.700806
v 597.205688 493.521606 -1902.128418
v 1439.533813 493.521667 -3401.008545
v 1439.533813 24.779442 -3401.008545
v 1439.533813 -24.779440 -3401.008301
v 1308.093871 -24.779438 -3401.494385
v 743.149535 -24.779440 -3403.583252
v 597.205688 -24.779440 -3404.122803
v 597.205688 24.779440 -3404.122803
v 597.205688 493.521606 -3404.122803
v 743.149535 493.521606 -3403.583252
v 743.149535 24.779440 -3403.583252
v 1308.093871 24.779440 -3401.494629
v 1308.093871 493.521606 -3401.494629
v 1439.533813 493.521606 -1855.276855
v 1439.533813 24.779442 -1855.276855
v 1439.533813 -24.779438 -1855.276855
v 1308.093871 -24.779438 -1854.781738
v 743.149535 -24.779442 -1852.654053
v 597.205688 -24.779440 -1852.104248
v 597.205688 24.779440 -1852.104248
v 597.205688 493.521606 -1852.104248
v 743.149535 493.521606 -1852.654053
v 743.149535 24.779440 -1852.654053
v 1308.093871 24.779440 -1854.781860
v 1308.093871 493.521606 -1854.781860
v 2209.240356 24.779442 -1905.431763
v 2209.240356 24.779442 -1855.276855
v 2209.240356 493.521606 -1905.431763
v 2209.240356 493.521606 -1855.276855
v 2209.240356 -24.779438 -1905.431763
v 2209.240356 24.779442 -1905.431763
v 2209.240356 -24.779440 -3359.412354
v 2209.240356 24.779442 -3359.412598
v 2209.240356 24.779442 -3359.412598
v 2209.240356 493.521667 -3359.412598
v 2209.240356 24.779442 -3401.008545
v 2209.240356 493.521667 -3401.008545
v 190.498656 -24.779440 -3362.715576
v 190.498656 24.779440 -3362.715576
v 190.498656 -24.779440 -1902.128418
v 190.498656 24.779440 -1902.128418
v 190.498656 24.779440 -1902.128418
v 190.498656 493.521606 -1902.128418
v 190.498656 24.779440 -1852.104248
v 190.498656 493.521606 -1852.104248
v 190.498656 24.779440 -3404.122803
v 190.498656 493.521606 -3404.122803
v 190.498656 24.779440 -3362.715576
v 190.498656 493.521606 -3362.715576
vt 0.151728 0.090180
vt 0.151728 0.026972
vt 0.156311 0.026972
vt 0.156311 0.090180
vt 0.151728 0.023143
vt 0.156311 0.023143
vt 0.199660 0.026972
vt 0.199660 0.090180
vt 0.010091 0.233601
vt 0.010091 0.228962
vt 0.014674 0.228962
vt 0.014674 0.233601
vt 0.010091 0.346182
vt 0.014674 0.346182
vt 0.058022 0.233601
vt 0.058022 0.346182
vt 0.609336 0.987378
vt 0.609336 0.803258
vt 0.735121 0.803258
vt 0.735121 0.987378
vt 0.609336 0.792104
vt 0.735121 0.792104
vt 0.057497 0.751971
vt 0.065857 0.751971
vt 0.065857 0.830102
vt 0.057497 0.830102
vt 0.299082 0.057903
vt 0.299082 0.044472
vt 0.424868 0.044472
vt 0.424868 0.057903
vt 0.299082 0.383881
vt 0.424868 0.383881
vt 0.218267 1.137360
vt 0.210006 1.137360
vt 0.210006 0.893905
vt 0.218267 0.893905
vt 0.194917 0.418097
vt 0.190334 0.418097
vt 0.190334 0.354601
vt 0.194917 0.354601
vt 0.194917 0.421944
vt 0.190334 0.421944
vt 0.238266 0.418097
vt 0.238266 0.354601
vt 0.872174 0.975817
vt 0.746389 0.975817
vt 0.746389 0.792258
vt 0.872174 0.792258
vt 0.872174 0.986937
vt 0.746389 0.986937
vt 0.232757 1.136259
vt 0.224496 1.136259
vt 0.224496 0.893905
vt 0.232757 0.893905
vt 0.162028 0.353649
vt 0.157445 0.353649
vt 0.157445 0.349022
vt 0.162028 0.349022
vt 0.157445 0.236735
vt 0.162028 0.236735
vt 0.205376 0.349022
vt 0.205376 0.236735
vt 0.979445 0.790574
vt 0.853659 0.790574
vt 0.853659 0.777121
vt 0.979445 0.777121
vt 0.853659 0.450571
vt 0.979445 0.450571
vt 0.043457 0.830102
vt 0.043457 0.751971
vt 0.051795 0.751971
vt 0.051795 0.830102
vt 0.030822 0.830102
vt 0.030822 0.751971
vt 0.037755 0.751971
vt 0.037755 0.830102
vt 0.018218 0.830102
vt 0.018218 0.751971
vt 0.025120 0.751971
vt 0.025120 0.830102
vt 0.164702 0.496054
vt 0.164702 0.517963
vt 0.050337 0.517963
vt 0.050256 0.496054
vt 0.043409 0.517963
vt 0.043323 0.496054
vt 0.043323 0.367757
vt 0.050256 0.367757
vt 0.142919 0.232676
vt 0.130763 0.232721
vt 0.130763 0.228085
vt 0.142919 0.228037
vt 0.142919 0.345257
vt 0.130763 0.345257
vt 0.078518 0.228290
vt 0.078518 0.232918
vt 0.130763 0.093528
vt 0.142919 0.093576
vt 0.078518 0.345257
vt 0.078518 0.093323
vt 0.065022 0.228343
vt 0.065022 0.232969
vt 0.130763 0.089684
vt 0.142919 0.089729
vt 0.214100 0.093576
vt 0.214100 0.228037
vt 0.065022 0.345257
vt 0.078518 0.089491
vt 0.065022 0.093270
vt 0.130763 0.026233
vt 0.142919 0.026233
vt 0.078518 0.026233
vt 0.065022 0.089441
vt 0.027410 0.228343
vt 0.027410 0.093270
vt 0.065022 0.026233
vt 0.591532 0.379202
vt 0.591532 0.392655
vt 0.439930 0.392061
vt 0.439930 0.378631
vt 0.591532 0.783106
vt 0.439930 0.783701
vt 0.591532 0.052652
vt 0.439930 0.052652
vt 0.626804 0.392794
vt 0.626804 0.782968
vt 0.591532 0.794261
vt 0.439930 0.794821
vt 0.400766 0.783854
vt 0.400766 0.391907
vt 0.833354 0.392794
vt 0.833354 0.782968
vt 0.591532 0.978380
vt 0.439930 0.978380
vt 0.291627 0.783854
vt 0.291627 0.391907
vt 0.157578 0.561368
vt 0.157578 0.675384
vt 0.133252 0.675384
vt 0.133252 0.561457
vt 0.157578 0.554460
vt 0.133252 0.554556
vt 0.065461 0.561457
vt 0.065461 0.554556
vt 0.166737 1.103578
vt 0.191063 1.103670
vt 0.191063 1.112012
vt 0.166737 1.111916
vt 0.166737 0.901190
vt 0.191063 0.901190
vt 0.098946 1.111916
vt 0.098946 1.103578
vt 0.040072 1.138286
vt 0.018163 1.138200
vt 0.018163 1.129843
vt 0.040072 1.129926
vt 0.018163 0.927009
vt 0.040072 0.927009
vt 0.168370 1.129926
vt 0.168370 1.138286
vt 0.102767 0.853121
vt 0.094407 0.853121
vt 0.094407 0.724823
vt 0.102767 0.724823
vt 0.117403 0.862925
vt 0.110470 0.862925
vt 0.110470 0.734627
vt 0.117403 0.734627
vt 0.052084 0.621792
vt 0.060422 0.621792
vt 0.060422 0.689584
vt 0.052084 0.689584
vt 0.039480 0.621792
vt 0.046382 0.621792
vt 0.046382 0.689583
vt 0.039480 0.689583
vt 0.119268 0.580712
vt 0.119268 0.602621
vt 0.111007 0.602621
vt 0.111007 0.580712
vt 0.119268 0.696788
vt 0.111007 0.696788
vt 0.032876 0.602621
vt 0.032876 0.580712
vt 0.119268 0.721114
vt 0.111007 0.721114
vt 0.032876 0.721114
vt 0.032876 0.696788
vt 0.010112 0.746732
vt 0.001851 0.746732
vt 0.001851 0.724823
vt 0.010112 0.724823
vt 0.010112 0.840899
vt 0.001851 0.840899
vt 0.088243 0.724823
vt 0.088243 0.746732
vt 0.010112 0.865225
vt 0.001851 0.865225
vt 0.088243 0.840899
vt 0.088243 0.865225
vt 0.134262 0.947370
vt 0.056131 0.947370
vt 0.056131 0.923043
vt 0.134262 0.923043
vt 0.134262 1.015161
vt 0.056131 1.015161
vt 0.423538 0.852053
vt 0.297751 0.852053
vt 0.297751 0.812889
vt 0.423538 0.812889
vt 0.423538 0.961192
vt 0.297751 0.961192
vt 0.737993 0.325367
vt 0.863779 0.325367
vt 0.863779 0.360639
vt 0.737993 0.360639
vt 0.737993 0.118817
vt 0.863779 0.118817
vt 0.728813 0.360639
vt 0.603027 0.360639
vt 0.603027 0.325367
vt 0.728813 0.325367
vt 0.603027 0.118817
vt 0.728813 0.118817
vt 0.116107 0.425782
vt 0.072759 0.425782
vt 0.072759 0.354601
vt 0.116107 0.354601
vt 0.124573 0.425782
vt 0.119990 0.425782
vt 0.119990 0.354601
vt 0.124573 0.354601
vt 0.132612 0.425782
vt 0.128029 0.425782
vt 0.128029 0.354601
vt 0.132612 0.354601
vt 0.186451 0.425782
vt 0.143103 0.425782
vt 0.143103 0.354601
vt 0.186451 0.354601
vt 0.107168 0.430726
vt 0.111752 0.430726
vt 0.111752 0.468337
vt 0.107168 0.468337
vt 0.099422 0.430726
vt 0.104005 0.430726
vt 0.104005 0.468337
vt 0.099422 0.468337
vt 0.193302 0.430673
vt 0.193302 0.474021
vt 0.155690 0.474021
vt 0.155690 0.430673
vt 0.152527 0.430726
vt 0.152527 0.474074
vt 0.114915 0.474074
vt 0.114915 0.430726
vn 0.000000 0.000000 -1.000000
vn 0.000000 0.000000 -1.000000
vn 0.000000 0.000000 -1.000000
vn 0.000000 0.000000 -1.000000
vn -0.000000 1.000000 -0.000000
vn -0.000000 1.000000 -0.000000
vn -0.000000 1.000000 -0.000000
vn -0.000000 1.000000 -0.000000
vn -0.000000 -1.000000 -0.000000
vn 0.000000 -1.000000 -0.000000
vn 0.000000 -1.000000 -0.000000
vn -0.000000 -1.000000 0.000000
vn -1.000000 0.000000 0.000000
vn -1.000000 0.000000 0.000000
vn -1.000000 0.000000 0.000000
vn -1.000000 0.000000 0.000000
vn 1.000000 0.000000 0.000000
vn 1.000000 0.000000 0.000000
vn 1.000000 0.000000 0.000000
vn 1.000000 0.000000 0.000000
vn -0.000000 -1.000000 0.000000
vn -0.000000 -1.000000 0.000000
vn 0.000000 -1.000000 0.000000
vn 0.000000 -1.000000 0.000000
vn 0.000000 0.000000 -1.000000
vn 0.000000 0.000000 -1.000000
vn 0.000000 1.000000 0.000000
vn 0.000000 1.000000 0.000000
vn 0.000000 1.000000 0.000000
vn 0.000000 1.000000 0.000000
vn 0.000000 -1.000000 0.000000
vn 0.000000 -1.000000 0.000000
vn 0.000000 0.000000 -1.000000
vn 0.000000 0.000000 -1.000000
vn -0.000002 0.000000 1.000000
vn 0.000000 0.000000 1.000000
vn -0.000004 0.000000 1.000000
vn -0.000004 0.000000 1.000000
vn 0.000001 0.000000 1.000000
vn 0.000000 0.000000 1.000000
vn 0.000000 0.000000 1.000000
vn 0.000000 0.000000 1.000000
vn 0.000000 0.000000 -1.000000
vn 0.000000 0.000000 -1.000000
vn -1.000000 0.000000 0.000000
vn -1.000000 0.000000 0.000000
vn -1.000000 0.000000 0.000000
vn -1.000000 0.000000 0.000000
vn -0.000004 0.000000 1.000000
vn -0.000004 0.000000 1.000000
vn 1.000000 0.000000 0.000000
vn 1.000000 0.000000 0.000000
vn 1.000000 0.000000 0.000000
vn 1.000000 0.000000 0.000000
vn 1.000000 0.000000 0.000000
vn 1.000000 0.000000 0.000000
vn 1.000000 0.000000 0.000000
vn 1.000000 0.000000 0.000000
vn 0.000000 0.000000 -1.000000
vn 0.000000 0.000000 -1.000000
vn -1.000000 0.000000 0.000000
vn -1.000000 0.000000 0.000000
vn 0.000000 0.000000 1.000000
vn 0.000000 0.000000 1.000000
vn -0.000000 -1.000000 0.000000
vn -0.000000 -1.000000 0.000000
vn -1.000000 0.000000 0.000000
vn -1.000000 0.000000 0.000000
vn -1.000000 0.000000 0.000000
vn -1.000000 0.000000 0.000000
vn 1.000000 0.000000 0.000000
vn 1.000000 0.000000 0.000000
vn 1.000000 0.000000 0.000000
vn 1.000000 0.000000 0.000000
vn 0.000000 -1.000000 -0.000000
vn 0.000000 -1.000000 -0.000000
vn 0.000000 -1.000000 -0.000000
vn 0.000000 1.000000 0.000000
vn 0.000000 1.000000 0.000000
vn 0.000000 1.000000 0.000000
vn 0.000000 1.000000 0.000000
vn -0.000000 -1.000000 -0.000000
vn -0.000000 -1.000000 -0.000000
vn 1.000000 0.000000 0.000000
vn 1.000000 0.000000 0.000000
vn 1.000000 0.000000 0.000000
vn 1.000000 0.000000 0.000000
vn 1.000000 0.000000 0.000000
vn 1.000000 0.000000 0.000000
vn -0.000000 -1.000000 0.000000
vn 1.000000 0.000000 0.000000
vn 1.000000 0.000000 0.000000
vn 1.000000 0.000000 0.000000
vn 1.000000 0.000000 0.000000
vn 0.000000 1.000000 0.000000
vn 0.000000 1.000000 0.000000
vn -1.000000 0.000000 0.000000
vn -1.000000 0.000000 0.000000
vn -1.000000 0.000000 0.000000
vn -1.000000 0.000000 0.000000
vn 0.000000 -1.000000 0.000000
vn -0.000000 -1.000000 0.000000
vn -1.000000 0.000000 0.000000
vn -1.000000 0.000000 0.000000
vn -1.000000 0.000000 0.000000
vn -1.000000 0.000000 0.000000
vn -1.000000 0.000000 0.000000
vn -1.000000 0.000000 0.000000
vn -1.000000 0.000000 0.000000
vn -1.000000 0.000000 0.000000
vn -0.001036 0.000000 -0.999999
vn -0.001036 0.000000 -0.999999
vn -0.003922 0.000000 -0.999992
vn -0.003922 0.000000 -0.999992
vn -0.001036 0.000000 0.999999
vn -0.001036 0.000000 0.999999
vn -0.003921 0.000000 0.999992
vn -0.003921 0.000000 0.999992
vn 0.000000 1.000000 0.000000
vn 0.000000 1.000000 0.000000
vn 0.000000 1.000000 0.000000
vn 0.000000 1.000000 0.000000
vn 0.000000 1.000000 0.000000
vn 0.000000 1.000000 0.000000
vn 0.000000 1.000000 0.000000
vn 0.000000 1.000000 0.000000
vn 0.000000 1.000000 0.000000
vn 0.000000 1.000000 0.000000
vn 0.000000 1.000000 0.000000
vn 0.000000 1.000000 0.000000
vn 0.000000 1.000000 0.000000
vn 0.000000 1.000000 0.000000
vn 0.000000 1.000000 0.000000
vn 0.000000 1.000000 0.000000
vn -0.000000 1.000000 0.000000
vn -0.000000 1.000000 0.000000
vn -0.000000 1.000000 0.000000
vn -0.000000 1.000000 0.000000
vn -0.000572 0.000000 -1.000000
vn -0.000572 0.000000 -1.000000
vn -0.003921 0.000000 -0.999992
vn -0.003921 0.000000 -0.999992
vn -0.003921 0.000000 0.999992
vn -0.003921 0.000000 0.999992
vn -0.000572 0.000000 1.000000
vn -0.000572 0.000000 1.000000
vn 1.000000 0.000000 0.000000
vn 1.000000 0.000000 0.000000
vn 1.000000 0.000000 0.000000
vn 1.000000 0.000000 0.000000
vn 1.000000 0.000000 0.000000
vn 1.000000 0.000000 0.000000
vn -1.000000 0.000000 0.000000
vn -1.000000 0.000000 0.000000
vn -1.000000 0.000000 0.000000
vn -1.000000 0.000000 0.000000
vn -1.000000 0.000000 0.000000
vn -1.000000 0.000000 0.000000
vn 0.000000 1.000000 0.000000
vn 0.000000 1.000000 0.000000
vn 1.000000 0.000000 0.000000
vn 1.000000 0.000000 0.000000
vn -1.000000 0.000000 0.000000
vn -1.000000 0.000000 0.000000
vn -0.000000 1.000000 0.000000
vn -0.000000 1.000000 0.000000
vn 1.000000 0.000000 0.000000
vn 1.000000 0.000000 0.000000
vn 1.000000 0.000000 0.000000
vn 1.000000 0.000000 0.000000
vn -0.000000 -1.000000 -0.000000
vn 0.000000 -1.000000 -0.000000
vn 0.000000 -1.000000 0.000000
vn -0.000000 -1.000000 0.000000
vn -1.000000 0.000000 0.000000
vn -1.000000 0.000000 0.000000
vn -1.000000 0.000000 0.000000
vn -1.000000 0.000000 0.000000
vn 0.000000 1.000000 0.000000
vn 0.000000 1.000000 0.000000
vn 1.000000 0.000000 0.000000
vn 1.000000 0.000000 0.000000
vn 0.000000 1.000000 0.000000
vn 0.000000 1.000000 0.000000
vn -1.000000 0.000000 0.000000
vn -1.000000 0.000000 0.000000
vn 0.000000 1.000000 0.000000
vn 0.000000 1.000000 0.000000
vn 0.000000 -1.000000 0.000000
vn 0.000000 -1.000000 0.000000
vn 0.000000 -1.000000 0.000000
vn 0.000000 -1.000000 0.000000
vn 0.000000 0.000000 -1.000000
vn 0.000000 0.000000 -1.000000
vn 0.000000 1.000000 0.000000
vn 0.000000 1.000000 0.000000
vn 0.000000 0.000000 1.000000
vn 0.000000 0.000000 1.000000
vn 0.000000 0.000000 1.000000
vn 0.000000 0.000000 1.000000
vn 0.000000 0.000000 1.000000
vn 0.000000 0.000000 1.000000
vn 0.000000 0.000000 1.000000
vn 0.000000 0.000000 1.000000
vn 0.000000 -1.000000 0.000000
vn 0.000000 -1.000000 0.000000
vn 0.000000 -0.000005 -1.000000
vn 0.000000 -0.000005 -1.000000
vn 0.000000 -0.000005 -1.000000
vn 0.000000 -0.000005 -1.000000
vn 0.000000 1.000000 0.000000
vn 0.000000 1.000000 0.000000
vn 0.000000 0.000000 1.000000
vn 0.000000 0.000000 1.000000
vn 0.000000 -1.000000 0.000000
vn 0.000000 -1.000000 0.000000
vn 0.000000 -1.000000 0.000000
vn 0.000000 -1.000000 0.000000
vn 0.000000 0.000000 -1.000000
vn 0.000000 0.000000 -1.000000
vn 0.000000 0.000000 -1.000000
vn 0.000000 0.000000 -1.000000
vn 0.000000 1.000000 0.000000
vn 0.000000 1.000000 0.000000
vn 0.000000 0.000000 -1.000000
vn 0.000000 0.000000 -1.000000
vn 0.000000 0.000000 -1.000000
vn 0.000000 0.000000 -1.000000
vn 0.000000 -1.000000 0.000000
vn 0.000000 -1.000000 0.000000
vn 0.000000 0.000000 1.000000
vn 0.000000 0.000000 1.000000
vn 0.000000 0.000000 1.000000
vn 0.000000 0.000000 1.000000
vn 0.000000 1.000000 0.000000
vn 0.000000 1.000000 0.000000
vn 0.000000 0.000000 -1.000000
vn 0.000000 0.000000 -1.000000
vn 0.000000 -1.000000 0.000000
vn 0.000000 -1.000000 0.000000
vn 0.000000 -1.000000 0.000000
vn 0.000000 -1.000000 0.000000
vn 0.000000 0.000000 1.000000
vn 0.000000 0.000000 1.000000
vn 0.000000 0.000000 1.000000
vn 0.000000 0.000000 1.000000
vn 0.000000 1.000000 0.000000
vn 0.000000 1.000000 0.000000
vn 0.000000 0.000000 -1.000000
vn 0.000000 0.000000 -1.000000
vn 0.000000 0.000000 -1.000000
vn 0.000000 0.000000 -1.000000
vn 0.000000 -1.000000 0.000000
vn 0.000000 -1.000000 0.000000
vn 0.000000 -1.000000 0.000000
vn 0.000000 -1.000000 0.000000
vn 0.000000 0.000000 1.000000
vn 0.000000 0.000000 1.000000
vn 0.000000 1.000000 0.000000
vn 0.000000 1.000000 0.000000
s 1
g polySurface12 Basics
usemtl standardSurface5SG
f 1/177/1 10/178/2 11/179/3 3/180/4
s 2
f 17/81/5 18/82/6 60/83/7 49/84/8
s 3
f 63/89/9 64/90/10 39/91/11 37/92/12
s 4
f 2/1/13 54/2/14 55/3/15 4/4/16
s 5
f 63/9/17 37/10/18 41/11/19 62/12/20
s 3
f 10/110/21 52/103/22 53/108/23 14/112/24
s 1
f 11/179/3 10/178/2 14/181/25 15/182/26
s 7
f 71/117/27 43/118/28 44/119/29 70/120/30
s 3
f 14/112/24 53/108/23 54/113/31 2/116/32
s 1
f 15/182/26 14/181/25 2/185/33 4/186/34
s 8
f 12/189/35 9/190/36 7/191/37 5/192/38
f 13/194/39 16/193/40 6/197/41 8/198/42
f 12/189/35 16/193/40 13/194/39 9/190/36
s 1
f 3/180/4 11/179/3 18/183/43 17/184/44
s 9
f 11/17/45 59/18/46 60/19/47 18/20/48
s 8
f 12/189/35 5/192/38 20/195/49 19/196/50
s off
f 74/23/51 73/24/52 75/25/53 76/26/54
s 10
f 70/27/55 44/28/56 47/29/57 69/30/58
s 1
f 15/182/26 4/186/34 23/187/59 21/188/60
s 4
f 4/4/16 55/3/15 56/7/61 23/8/62
s 8
f 6/197/41 16/193/40 22/199/63 24/200/64
s 3
f 51/104/65 52/103/22 10/110/21 1/111/66
s off
f 86/33/67 85/34/68 87/35/69 88/36/70
s 11
f 50/37/71 51/38/72 1/39/73 3/40/74
s 3
f 31/100/75 29/97/76 39/91/11 40/95/77
s 7
f 58/128/78 59/127/79 11/133/80 15/134/81
s 3
f 28/109/82 31/100/75 40/95/77 38/101/83
s 11
f 49/43/84 50/37/71 3/40/74 17/44/85
s 13
f 57/45/86 58/46/87 15/47/88 21/48/89
s 3
f 37/92/12 39/91/11 29/97/76 27/98/90
s off
f 78/51/91 77/52/92 79/53/93 80/54/94
s 7
f 44/119/29 43/118/28 30/121/95 32/122/96
s 14
f 42/55/97 38/56/98 66/57/99 67/58/100
s 3
f 40/95/77 39/91/11 64/90/10 65/96/101
f 38/101/83 40/95/77 65/96/101 66/102/102
s 15
f 45/63/103 43/64/104 71/65/105 72/66/106
s off
f 90/69/107 89/70/108 91/71/109 92/72/110
s 16
f 42/201/111 48/202/112 47/203/113 44/204/114
s 17
f 36/207/115 26/208/116 32/209/117 35/210/118
s 18
f 26/129/119 42/130/120 44/119/121 32/122/122
s 19
f 57/137/123 21/138/124 23/139/125 56/140/126
s 20
f 68/145/127 69/146/128 47/147/129 48/148/130
s 21
f 46/153/131 45/154/132 72/155/133 61/156/134
s 22
f 41/125/135 25/126/136 30/121/137 43/118/138
s 23
f 46/213/139 41/214/140 43/215/141 45/216/142
s 24
f 33/219/143 30/220/144 25/221/145 34/222/146
s off
f 82/73/147 81/74/148 83/75/149 84/76/150
s 11
f 25/41/151 27/42/152 51/38/72 50/37/71
s 3
f 27/98/90 29/97/76 52/103/22 51/104/65
f 53/108/23 52/103/22 29/97/76 31/100/75
f 54/113/31 53/108/23 31/100/75 28/109/82
s 4
f 55/3/15 54/2/14 28/5/153 26/6/154
s off
f 94/77/155 93/78/156 95/79/157 96/80/158
s 19
f 35/141/159 57/137/123 56/140/126 36/142/160
s 13
f 35/49/161 32/50/162 58/46/87 57/45/86
s 7
f 32/122/96 30/121/95 59/127/79 58/128/78
s 9
f 60/19/47 59/18/46 30/21/163 33/22/164
s 2
f 49/84/8 60/83/7 33/85/165 34/86/166
s 5
f 5/14/167 62/12/20 61/15/168 20/16/169
f 7/13/170 63/9/17 62/12/20 5/14/167
s 3
f 7/93/171 9/94/172 64/90/10 63/89/9
f 65/96/101 64/90/10 9/94/172 13/99/173
f 66/102/102 65/96/101 13/99/173 8/107/174
s 14
f 67/58/100 66/57/99 8/59/175 6/60/176
f 68/61/177 67/58/100 6/60/176 24/62/178
s 20
f 24/149/179 22/150/180 69/146/128 68/145/127
s 10
f 16/31/181 70/27/55 69/30/58 22/32/182
s 7
f 12/123/183 71/117/27 70/120/30 16/124/184
s 15
f 72/66/106 71/65/105 12/67/185 19/68/186
s 21
f 61/156/134 72/155/133 19/157/187 20/158/188
s off
f 62/161/189 41/162/190 73/163/191 74/164/192
s 23
f 41/214/140 46/213/139 75/217/193 73/218/194
s 21
f 46/153/131 61/156/134 76/159/195 75/160/196
s off
f 61/225/197 62/226/198 74/227/199 76/228/200
f 41/229/201 37/230/202 77/231/203 78/232/204
s 3
f 37/92/12 27/98/90 79/105/205 77/106/206
s off
f 27/233/207 25/234/208 80/235/209 79/236/210
s 22
f 25/126/136 41/125/135 78/131/211 80/132/212
s 24
f 34/222/146 25/221/145 81/223/213 82/224/214
s off
f 25/165/215 50/166/216 83/167/217 81/168/218
f 50/237/219 49/238/220 84/239/221 83/240/222
s 2
f 49/84/8 34/86/166 82/87/223 84/88/224
s off
f 26/241/225 28/242/226 85/243/227 86/244/228
s 3
f 28/109/82 38/101/83 87/114/229 85/115/230
s off
f 38/245/231 42/246/232 88/247/233 87/248/234
s 18
f 42/130/120 26/129/119 86/135/235 88/136/236
s 16
f 48/202/112 42/201/111 89/205/237 90/206/238
s off
f 42/169/239 67/170/240 91/171/241 89/172/242
f 67/249/243 68/250/244 92/251/245 91/252/246
s 20
f 68/145/127 48/148/130 90/151/247 92/152/248
s off
f 56/253/249 55/254/250 93/255/251 94/256/252
f 55/173/253 26/174/254 95/175/255 93/176/256
s 17
f 26/208/116 36/207/115 96/211/257 95/212/258
s 19
f 36/142/160 56/140/126 94/143/259 96/144/260
