# This file uses centimeters as units for non-parametric coordinates.

mtllib Room1.mtl
g default
v -1201.131715 -24.779440 -4087.615234
v -2043.459840 -24.779440 -4087.615234
v -1201.131715 24.779440 -4087.615234
v -2043.459840 24.779440 -4087.615234
v -1201.131715 24.779440 -637.897949
v -2043.459840 24.779440 -637.897949
v -1201.131715 -24.779440 -637.897949
v -2043.459840 -24.779440 -637.897949
v -1332.572144 -24.779440 -637.898438
v -1332.572144 -24.779440 -4087.615234
v -1332.572144 24.779440 -4087.615234
v -1332.572144 24.779440 -637.898438
v -1897.516480 -24.779440 -637.897949
v -1897.516480 -24.779440 -4087.615234
v -1897.516480 24.779440 -4087.615234
v -1897.516480 24.779440 -637.897949
v -1201.131715 493.521606 -4087.615234
v -1332.572144 493.521606 -4087.615234
v -1332.572144 493.521606 -637.898438
v -1201.131715 493.521606 -637.897949
v -1897.516480 493.521606 -4087.615234
v -1897.516480 493.521606 -637.897949
v -2043.459840 493.521606 -4087.615234
v -2043.459840 493.521606 -637.897949
v -1201.131715 24.779442 -3359.412598
v -2043.459840 24.779440 -3362.715576
v -1201.131715 -24.779440 -3359.412354
v -2043.459840 -24.779440 -3362.715576
v -1332.572144 -24.779438 -3359.927734
v -1332.572144 24.779440 -3359.927979
v -1897.516480 -24.779440 -3362.143311
v -1897.516480 24.779440 -3362.143311
v -1332.572144 493.521606 -3359.927979
v -1201.131715 493.521667 -3359.412598
v -1897.516480 493.521606 -3362.143311
v -2043.459840 493.521606 -3362.715576
v -1201.131715 -24.779438 -1905.431763
v -2043.459840 -24.779440 -1902.128418
v -1332.572144 -24.779438 -1904.916260
v -1897.516480 -24.779442 -1902.700928
v -1201.131715 24.779442 -1905.431763
v -2043.459840 24.779440 -1902.128418
v -1332.572144 24.779440 -1904.916382
v -1897.516480 24.779440 -1902.700806
v -1332.572144 493.521606 -1904.916382
v -1201.131715 493.521606 -1905.431763
v -1897.516480 493.521606 -1902.700806
v -2043.459840 493.521606 -1902.128418
v -2043.459840 493.521606 -3393.382080
v -1897.516480 493.521606 -3392.833984
v -1897.516480 24.779440 -3392.833984
v -1332.572144 24.779440 -3390.712402
v -1332.572144 493.521606 -3390.712402
v -1201.131715 493.521667 -3390.218750
v -1201.131715 24.779442 -3390.218750
v -1201.131715 -24.779440 -3390.218506
v -1332.572144 -24.779438 -3390.712158
v -1897.516480 -24.779440 -3392.833984
v -2043.459840 -24.779440 -3393.382080
v -2043.459840 24.779440 -3393.382080
v -2043.459840 493.521606 -1873.299683
v -1897.516480 493.521606 -1873.859131
v -1897.516480 24.779440 -1873.859131
v -1332.572144 24.779440 -1876.024170
v -1332.572144 493.521606 -1876.024170
v -1201.131715 493.521606 -1876.527710
v -1201.131715 24.779442 -1876.527710
v -1201.131715 -24.779438 -1876.527710
v -1332.572144 -24.779438 -1876.024048
v -1897.516480 -24.779442 -1873.859253
v -2043.459840 -24.779440 -1873.299683
v -2043.459840 24.779440 -1873.299683
v -2591.156129 -24.779440 -3362.715576
v -2591.156129 24.779440 -3362.715576
v -2591.156129 -24.779440 -1902.128418
v -2591.156129 24.779440 -1902.128418
v -2591.156129 24.779440 -1902.128418
v -2591.156129 493.521606 -1902.128418
v -2591.156129 24.779440 -1873.299683
v -2591.156129 493.521606 -1873.299683
v -2591.156129 24.779440 -3393.382080
v -2591.156129 493.521606 -3393.382080
v -2591.156129 24.779440 -3362.715576
v -2591.156129 493.521606 -3362.715576
vt 0.141555 0.444739
vt 0.141555 0.372784
vt 0.146691 0.372784
vt 0.146691 0.444739
vt 0.141555 0.369606
vt 0.146691 0.369606
vt 0.195275 0.372784
vt 0.195275 0.444739
vt 0.236860 0.239242
vt 0.236860 0.236246
vt 0.241997 0.236246
vt 0.241997 0.239242
vt 0.236860 0.085546
vt 0.241997 0.085546
vt 0.290581 0.236246
vt 0.290581 0.239242
vt 0.236860 0.367622
vt 0.241997 0.367622
vt 0.236860 0.082353
vt 0.241997 0.082353
vt 0.290581 0.085546
vt 0.290581 0.367622
vt 0.236860 0.010071
vt 0.241997 0.010071
vt 0.290581 0.082353
vt 0.290581 0.010071
vt 0.666486 0.967879
vt 0.666486 0.776943
vt 0.794911 0.776943
vt 0.794911 0.967879
vt 0.666486 0.768509
vt 0.794911 0.768509
vt 0.666486 0.369869
vt 0.794911 0.369869
vt 0.666486 0.361953
vt 0.794911 0.361953
vt 0.666486 0.022735
vt 0.794911 0.022735
vt 0.827786 0.030637
vt 0.827786 0.022735
vt 0.956211 0.022735
vt 0.956211 0.030637
vt 0.827786 0.369262
vt 0.956211 0.369262
vt 0.050595 0.300389
vt 0.040470 0.300389
vt 0.040470 0.001992
vt 0.050595 0.001992
vt 0.939978 0.785110
vt 0.811554 0.785110
vt 0.811554 0.594756
vt 0.939978 0.594756
vt 0.939978 0.793519
vt 0.811554 0.793519
vt 0.078404 0.500639
vt 0.073267 0.500639
vt 0.073267 0.497651
vt 0.078404 0.497651
vt 0.073267 0.369606
vt 0.078404 0.369606
vt 0.126988 0.497651
vt 0.126988 0.369606
vt 0.167669 0.968881
vt 0.167669 0.873118
vt 0.173559 0.873118
vt 0.173559 0.968881
vt 0.181033 0.968881
vt 0.181033 0.873118
vt 0.187299 0.873118
vt 0.187299 0.968881
vt 0.085728 0.367622
vt 0.072105 0.367622
vt 0.072105 0.295390
vt 0.085728 0.295339
vt 0.072105 0.292200
vt 0.085728 0.292146
vt 0.072105 0.141393
vt 0.085728 0.141446
vt 0.072105 0.138398
vt 0.085728 0.138450
vt 0.072105 0.010071
vt 0.085728 0.010071
vt 0.233707 0.239242
vt 0.220084 0.239295
vt 0.220084 0.236300
vt 0.233707 0.236246
vt 0.233707 0.367622
vt 0.220084 0.367622
vt 0.161529 0.236530
vt 0.161529 0.239519
vt 0.220084 0.085493
vt 0.233707 0.085546
vt 0.161529 0.367622
vt 0.161529 0.085263
vt 0.146403 0.236589
vt 0.146403 0.239577
vt 0.220084 0.082302
vt 0.233707 0.082353
vt 0.146403 0.367622
vt 0.161529 0.082082
vt 0.146403 0.085204
vt 0.220084 0.010071
vt 0.233707 0.010071
vt 0.161529 0.010071
vt 0.146403 0.082025
vt 0.089636 0.236589
vt 0.089636 0.085204
vt 0.146403 0.010071
vt 0.657984 0.361953
vt 0.657984 0.369869
vt 0.503202 0.369262
vt 0.503202 0.361360
vt 0.657984 0.768509
vt 0.503202 0.769116
vt 0.657984 0.022735
vt 0.503202 0.022735
vt 0.657984 0.776943
vt 0.503202 0.777524
vt 0.463217 0.769273
vt 0.463217 0.369105
vt 0.657984 0.967879
vt 0.503202 0.967879
vt 0.313160 0.769273
vt 0.313160 0.369105
vt 0.270218 0.372787
vt 0.270218 0.444799
vt 0.255091 0.444799
vt 0.255091 0.372844
vt 0.270218 0.369606
vt 0.255091 0.369665
vt 0.198324 0.372844
vt 0.198324 0.369665
vt 0.343569 0.271192
vt 0.358695 0.271250
vt 0.358695 0.274239
vt 0.343569 0.274180
vt 0.343569 0.143147
vt 0.358695 0.143147
vt 0.286802 0.274180
vt 0.286802 0.271192
vt 0.030544 0.873001
vt 0.036434 0.873001
vt 0.036434 0.984895
vt 0.030544 0.984895
vt 0.154305 0.873118
vt 0.160570 0.873118
vt 0.160570 0.985012
vt 0.154305 0.985012
vt 0.227257 0.690045
vt 0.227257 0.716898
vt 0.217132 0.716898
vt 0.217132 0.690045
vt 0.227257 0.832316
vt 0.217132 0.832316
vt 0.121369 0.716898
vt 0.121369 0.690045
vt 0.227257 0.862132
vt 0.217132 0.862132
vt 0.121369 0.862132
vt 0.121369 0.832316
vt 0.019595 0.716898
vt 0.009470 0.716898
vt 0.009470 0.690045
vt 0.019595 0.690045
vt 0.019595 0.832315
vt 0.009470 0.832315
vt 0.115358 0.690045
vt 0.115358 0.716898
vt 0.019595 0.862132
vt 0.009470 0.862132
vt 0.115358 0.832315
vt 0.115358 0.862132
vt 0.936887 0.416894
vt 0.808463 0.416894
vt 0.808463 0.376909
vt 0.936887 0.376909
vt 0.936887 0.566950
vt 0.808463 0.566950
vt 0.485625 0.838626
vt 0.357200 0.838626
vt 0.357200 0.798640
vt 0.485625 0.798640
vt 0.485625 0.988682
vt 0.357200 0.988682
vt 0.009443 0.873983
vt 0.019568 0.873983
vt 0.019568 0.985877
vt 0.009443 0.985877
vt 0.133222 0.443483
vt 0.138359 0.443483
vt 0.138359 0.500250
vt 0.133222 0.500250
vt 0.148719 0.446782
vt 0.197303 0.446782
vt 0.197303 0.503549
vt 0.148719 0.503549
vt 0.051209 0.873118
vt 0.146972 0.873118
vt 0.146972 0.985012
vt 0.051209 0.985012
vn 0.000000 0.000000 -1.000000
vn 0.000000 0.000000 -1.000000
vn 0.000000 0.000000 -1.000000
vn 0.000000 0.000000 -1.000000
vn -0.000000 1.000000 -0.000000
vn -0.000000 1.000000 -0.000000
vn -0.000000 1.000000 -0.000000
vn -0.000000 1.000000 -0.000000
vn -0.000000 -1.000000 -0.000000
vn 0.000000 -1.000000 -0.000000
vn 0.000000 -1.000000 -0.000000
vn -0.000000 -1.000000 0.000000
vn -1.000000 0.000000 0.000000
vn -1.000000 0.000000 0.000000
vn -1.000000 0.000000 0.000000
vn -1.000000 0.000000 0.000000
vn 1.000000 0.000000 0.000000
vn 1.000000 0.000000 0.000000
vn 1.000000 0.000000 0.000000
vn 1.000000 0.000000 0.000000
vn -0.000000 -1.000000 0.000000
vn -0.000000 -1.000000 0.000000
vn 0.000000 -1.000000 0.000000
vn 0.000000 -1.000000 0.000000
vn 0.000000 0.000000 -1.000000
vn 0.000000 0.000000 -1.000000
vn 0.000000 1.000000 0.000000
vn 0.000000 1.000000 0.000000
vn 0.000000 1.000000 0.000000
vn 0.000000 1.000000 0.000000
vn 0.000000 -1.000000 0.000000
vn 0.000000 -1.000000 0.000000
vn 0.000000 0.000000 -1.000000
vn 0.000000 0.000000 -1.000000
vn -0.000002 0.000000 1.000000
vn -0.000000 0.000000 1.000000
vn -0.000004 0.000000 1.000000
vn -0.000004 0.000000 1.000000
vn 0.000001 0.000000 1.000000
vn 0.000000 0.000000 1.000000
vn 0.000000 0.000000 1.000000
vn 0.000000 0.000000 1.000000
vn 0.000000 0.000000 -1.000000
vn 0.000000 0.000000 -1.000000
vn -1.000000 0.000000 0.000000
vn -1.000000 0.000000 0.000000
vn -1.000000 0.000000 0.000000
vn -1.000000 0.000000 0.000000
vn -0.000004 0.000000 1.000000
vn -0.000004 0.000000 1.000000
vn 1.000000 0.000000 0.000000
vn 1.000000 0.000000 0.000000
vn 1.000000 0.000000 0.000000
vn 1.000000 0.000000 0.000000
vn 1.000000 0.000000 0.000000
vn 1.000000 0.000000 0.000000
vn 0.000000 0.000000 -1.000000
vn 0.000000 0.000000 -1.000000
vn -1.000000 0.000000 0.000000
vn -1.000000 0.000000 0.000000
vn 0.000000 0.000000 1.000000
vn 0.000000 0.000000 1.000000
vn -0.000000 -1.000000 0.000000
vn -0.000000 -1.000000 0.000000
vn -1.000000 0.000000 0.000000
vn -1.000000 0.000000 0.000000
vn -1.000000 0.000000 0.000000
vn -1.000000 0.000000 0.000000
vn 1.000000 0.000000 0.000000
vn 1.000000 0.000000 0.000000
vn 1.000000 0.000000 0.000000
vn 1.000000 0.000000 0.000000
vn 0.000000 -1.000000 -0.000000
vn 0.000000 -1.000000 -0.000000
vn 0.000000 -1.000000 -0.000000
vn 0.000000 1.000000 0.000000
vn 0.000000 1.000000 0.000000
vn 0.000000 1.000000 0.000000
vn 0.000000 1.000000 0.000000
vn -0.000000 -1.000000 -0.000000
vn -0.000000 -1.000000 -0.000000
vn -1.000000 0.000000 0.000000
vn -1.000000 0.000000 0.000000
vn -1.000000 0.000000 0.000000
vn -1.000000 0.000000 0.000000
vn 1.000000 0.000000 0.000000
vn 1.000000 0.000000 0.000000
vn 1.000000 0.000000 0.000000
vn 1.000000 0.000000 0.000000
vn 1.000000 0.000000 0.000000
vn 1.000000 0.000000 0.000000
vn -0.000000 -1.000000 0.000000
vn 1.000000 0.000000 0.000000
vn 1.000000 0.000000 0.000000
vn 0.000000 1.000000 0.000000
vn 0.000000 1.000000 0.000000
vn 1.000000 0.000000 0.000000
vn -1.000000 0.000000 0.000000
vn -1.000000 0.000000 0.000000
vn -1.000000 0.000000 0.000000
vn -1.000000 0.000000 0.000000
vn 0.000000 -1.000000 0.000000
vn -0.000000 -1.000000 0.000000
vn -1.000000 0.000000 0.000000
vn -1.000000 0.000000 0.000000
vn -1.000000 0.000000 0.000000
vn -1.000000 0.000000 0.000000
vn -1.000000 0.000000 0.000000
vn -1.000000 0.000000 0.000000
vn -0.000825 0.000000 -1.000000
vn -0.000825 0.000000 -1.000000
vn -0.003922 0.000000 -0.999992
vn -0.003922 0.000000 -0.999992
vn -0.000825 0.000000 1.000000
vn -0.000825 0.000000 1.000000
vn -0.003921 0.000000 0.999992
vn -0.003921 0.000000 0.999992
vn 0.000000 1.000000 0.000000
vn 0.000000 1.000000 0.000000
vn 0.000000 1.000000 0.000000
vn 0.000000 1.000000 0.000000
vn 0.000000 1.000000 0.000000
vn 0.000000 1.000000 0.000000
vn 0.000000 1.000000 0.000000
vn 0.000000 1.000000 0.000000
vn 0.000000 1.000000 0.000000
vn 0.000000 1.000000 0.000000
vn 0.000000 1.000000 0.000000
vn 0.000000 1.000000 0.000000
vn -0.000000 1.000000 0.000000
vn -0.000000 1.000000 0.000000
vn -0.000000 1.000000 0.000000
vn -0.000000 1.000000 0.000000
vn 0.000000 1.000000 0.000000
vn 0.000000 1.000000 0.000000
vn 0.000000 1.000000 0.000000
vn 0.000000 1.000000 0.000000
vn 1.000000 0.000000 0.000000
vn 1.000000 0.000000 0.000000
vn -1.000000 0.000000 0.000000
vn -1.000000 0.000000 0.000000
vn -1.000000 0.000000 0.000000
vn -1.000000 0.000000 0.000000
vn -1.000000 0.000000 0.000000
vn -1.000000 0.000000 0.000000
vn 0.000000 1.000000 0.000000
vn 0.000000 1.000000 0.000000
vn 1.000000 0.000000 0.000000
vn 1.000000 0.000000 0.000000
vn 0.000000 1.000000 0.000000
vn 0.000000 1.000000 0.000000
vn -1.000000 0.000000 0.000000
vn -1.000000 0.000000 0.000000
vn 0.000000 1.000000 0.000000
vn 0.000000 1.000000 0.000000
vn 1.000000 0.000000 0.000000
vn 1.000000 0.000000 0.000000
vn 1.000000 0.000000 0.000000
vn -0.000000 -1.000000 -0.000000
vn 0.000000 -1.000000 -0.000000
vn 0.000000 -1.000000 0.000000
vn -0.000000 -1.000000 0.000000
vn -1.000000 0.000000 0.000000
vn -1.000000 0.000000 0.000000
vn -1.000000 0.000000 0.000000
vn -1.000000 0.000000 0.000000
vn 0.000000 0.000000 -1.000000
vn 0.000000 0.000000 -1.000000
vn 0.000000 0.000000 -1.000000
vn 0.000000 0.000000 -1.000000
vn 0.000000 -1.000000 0.000000
vn 0.000000 -1.000000 0.000000
vn 0.000000 0.000000 1.000000
vn 0.000000 0.000000 1.000000
vn 0.000000 0.000000 1.000000
vn 0.000000 0.000000 1.000000
vn 0.000000 1.000000 0.000000
vn 0.000000 1.000000 0.000000
vn 0.000000 0.000000 -1.000000
vn 0.000000 0.000000 -1.000000
vn 0.000000 -1.000000 0.000000
vn 0.000000 -1.000000 0.000000
vn 0.000000 -1.000000 0.000000
vn 0.000000 -1.000000 0.000000
vn 0.000000 0.000000 1.000000
vn 0.000000 0.000000 1.000000
vn 0.000000 0.000000 1.000000
vn 0.000000 0.000000 1.000000
vn 0.000000 1.000000 0.000000
vn 0.000000 1.000000 0.000000
vn 0.000000 0.000000 -1.000000
vn 0.000000 0.000000 -1.000000
vn 0.000000 0.000000 -1.000000
vn 0.000000 0.000000 -1.000000
vn 0.000000 -1.000000 0.000000
vn 0.000000 -1.000000 0.000000
vn 0.000000 -1.000000 0.000000
vn 0.000000 -1.000000 0.000000
vn 0.000000 0.000000 1.000000
vn 0.000000 0.000000 1.000000
vn 0.000000 1.000000 0.000000
vn 0.000000 1.000000 0.000000
s 1
g polySurface14 Basics
usemtl standardSurface4SG
f 1/149/1 10/150/2 11/151/3 3/152/4
s 2
f 17/71/5 18/72/6 53/73/7 54/74/8
s 3
f 68/83/9 69/84/10 39/85/11 37/86/12
s 4
f 2/1/13 59/2/14 60/3/15 4/4/16
s 5
f 68/9/17 37/10/18 41/11/19 67/12/20
s 3
f 10/102/21 57/97/22 58/100/23 14/104/24
s 1
f 11/151/3 10/150/2 14/153/25 15/154/26
s 7
f 64/109/27 43/110/28 44/111/29 63/112/30
s 3
f 14/104/24 58/100/23 59/105/31 2/108/32
s 1
f 15/154/26 14/153/25 2/157/33 4/158/34
s 8
f 12/161/35 9/162/36 7/163/37 5/164/38
f 13/166/39 16/165/40 6/169/41 8/170/42
f 12/161/35 16/165/40 13/166/39 9/162/36
s 1
f 3/152/4 11/151/3 18/155/43 17/156/44
s 9
f 11/27/45 52/28/46 53/29/47 18/30/48
s 8
f 12/161/35 5/164/38 20/167/49 19/168/50
s 5
f 67/12/20 41/11/19 46/15/51 66/16/52
s 10
f 63/39/53 44/40/54 47/41/55 62/42/56
s 1
f 15/154/26 4/158/34 23/159/57 21/160/58
s 4
f 4/4/16 60/3/15 49/7/59 23/8/60
s 8
f 6/169/41 16/165/40 22/171/61 24/172/62
s 3
f 56/98/63 57/97/22 10/102/21 1/103/64
s off
f 74/45/65 73/46/66 75/47/67 76/48/68
s 5
f 55/20/69 56/19/70 1/23/71 3/24/72
s 3
f 31/94/73 29/91/74 39/85/11 40/89/75
s 7
f 51/118/76 52/117/77 11/121/78 15/122/79
s 3
f 28/101/80 31/94/73 40/89/75 38/95/81
s 9
f 33/32/82 30/31/83 43/33/84 45/34/85
s 5
f 54/25/86 55/20/69 3/24/72 17/26/87
s 13
f 50/49/88 51/50/89 15/51/90 21/52/91
s 3
f 37/86/12 39/85/11 29/91/74 27/92/92
s 5
f 41/11/19 37/10/18 27/13/93 25/14/94
s 7
f 44/111/29 43/110/28 30/113/95 32/114/96
s 5
f 46/15/51 41/11/19 25/14/94 34/21/97
s 14
f 42/55/98 38/56/99 71/57/100 72/58/101
s 3
f 40/89/75 39/85/11 69/84/10 70/90/102
f 38/95/81 40/89/75 70/90/102 71/96/103
s 9
f 45/34/85 43/33/84 64/35/104 65/36/105
s off
f 78/63/106 77/64/107 79/65/108 80/66/109
s 15
f 42/173/110 48/174/111 47/175/112 44/176/113
s 16
f 36/179/114 26/180/115 32/181/116 35/182/117
s 17
f 26/119/118 42/120/119 44/111/120 32/114/121
s 18
f 50/125/122 21/126/123 23/127/124 49/128/125
s 19
f 61/133/126 62/134/127 47/135/128 48/136/129
s 2
f 34/76/130 33/75/131 45/77/132 46/78/133
f 46/78/133 45/77/132 65/79/134 66/80/135
s 18
f 35/129/136 50/125/122 49/128/125 36/130/137
s 13
f 35/53/138 32/54/139 51/50/89 50/49/88
s 7
f 32/114/96 30/113/95 52/117/77 51/118/76
s 9
f 53/29/47 52/28/46 30/31/83 33/32/82
s 2
f 54/74/8 53/73/7 33/75/131 34/76/130
s 5
f 34/21/97 25/14/94 55/20/69 54/25/86
f 25/14/94 27/13/93 56/19/70 55/20/69
s 3
f 27/92/92 29/91/74 57/97/22 56/98/63
f 58/100/23 57/97/22 29/91/74 31/94/73
f 59/105/31 58/100/23 31/94/73 28/101/80
s 4
f 60/3/15 59/2/14 28/5/140 26/6/141
s off
f 82/67/142 81/68/143 83/69/144 84/70/145
s 19
f 24/137/146 22/138/147 62/134/127 61/133/126
s 10
f 16/43/148 63/39/53 62/42/56 22/44/149
s 7
f 12/115/150 64/109/27 63/112/30 16/116/151
s 9
f 65/36/105 64/35/104 12/37/152 19/38/153
s 2
f 66/80/135 65/79/134 19/81/154 20/82/155
s 5
f 5/18/156 67/12/20 66/16/52 20/22/157
f 7/17/158 68/9/17 67/12/20 5/18/156
s 3
f 7/87/159 9/88/160 69/84/10 68/83/9
f 70/90/102 69/84/10 9/88/160 13/93/161
f 71/96/103 70/90/102 13/93/161 8/99/162
s 14
f 72/58/101 71/57/100 8/59/163 6/60/164
f 61/61/165 72/58/101 6/60/164 24/62/166
s off
f 26/185/167 28/186/168 73/187/169 74/188/170
s 3
f 28/101/80 38/95/81 75/106/171 73/107/172
s off
f 38/189/173 42/190/174 76/191/175 75/192/176
s 17
f 42/120/119 26/119/118 74/123/177 76/124/178
s 15
f 48/174/111 42/173/110 77/177/179 78/178/180
s off
f 42/141/181 72/142/182 79/143/183 77/144/184
f 72/193/185 61/194/186 80/195/187 79/196/188
s 19
f 61/133/126 48/136/129 78/139/189 80/140/190
s off
f 49/197/191 60/198/192 81/199/193 82/200/194
f 60/145/195 26/146/196 83/147/197 81/148/198
s 16
f 26/180/115 36/179/114 84/183/199 83/184/200
s 18
f 36/130/137 49/128/125 82/131/201 84/132/202
